<?xml version="1.0" encoding="UTF-8" standalone="no"?>
<!-- Created with Inkscape (http://www.inkscape.org/) -->

<svg
   width="69.439377mm"
   height="20.000006mm"
   viewBox="0 0 69.439378 20.000006"
   version="1.1"
   id="svg1"
   xml:space="preserve"
   inkscape:version="1.3.2 (091e20e, 2023-11-25, custom)"
   sodipodi:docname="Passion playground logo white.svg"
   xmlns:inkscape="http://www.inkscape.org/namespaces/inkscape"
   xmlns:sodipodi="http://sodipodi.sourceforge.net/DTD/sodipodi-0.dtd"
   xmlns="http://www.w3.org/2000/svg"
   xmlns:svg="http://www.w3.org/2000/svg"><sodipodi:namedview
     id="namedview1"
     pagecolor="#7e7e7e"
     bordercolor="#000000"
     borderopacity="0.25"
     inkscape:showpageshadow="2"
     inkscape:pageopacity="0.0"
     inkscape:pagecheckerboard="0"
     inkscape:deskcolor="#d1d1d1"
     inkscape:document-units="mm"
     inkscape:zoom="1.4627806"
     inkscape:cx="-12.647146"
     inkscape:cy="114.50794"
     inkscape:window-width="1920"
     inkscape:window-height="1017"
     inkscape:window-x="-8"
     inkscape:window-y="-8"
     inkscape:window-maximized="1"
     inkscape:current-layer="layer1" /><defs
     id="defs1" /><g
     inkscape:label="Layer 1"
     inkscape:groupmode="layer"
     id="layer1"
     transform="translate(-48.643848,-80.191094)"><g
       id="g1"
       transform="translate(-25.684531,6.2283851)"
       style="fill:#ffffff"><path
         d="m 90.420965,91.828122 c 0.07457,-0.01243 -0.05255,0.08773 -0.195596,0.197273 -0.09147,0.07041 -0.131242,0.107068 -0.272072,0.20405 -0.01584,0.01091 -0.01156,0.0097 -0.02819,0.02106 -0.07676,0.05253 -0.153469,0.09654 -0.230134,0.146257 -0.141137,0.09247 -0.291592,0.19685 -0.401412,0.260055 -0.05265,0.0303 -0.113951,0.05488 -0.168107,0.08455 -0.23258,0.129765 -0.468605,0.24725 -0.707317,0.354587 -0.04949,0.02209 -0.09612,0.04294 -0.145904,0.0642 -0.298219,0.127784 -0.601189,0.245531 -0.91842,0.343528 -0.173765,0.05371 -0.347816,0.110575 -0.386611,0.126286 -0.15554,0.06316 -1.150279,0.251379 -1.595428,0.301792 -0.366477,0.04163 -1.793673,0.04114 -2.13182,-6.9e-4 -0.843384,-0.104479 -1.460341,-0.247609 -2.141688,-0.497282 -0.729886,-0.267394 -0.923131,-0.351101 -1.421331,-0.614291 -0.709134,-0.374607 -0.759447,-0.45391 -0.211807,-0.333547 0.859624,0.188857 0.975065,0.208621 1.558072,0.272544 0.231687,0.0254 0.536092,0.05971 0.676656,0.07634 0.545748,0.06475 1.235355,0.09424 1.969352,0.09061 0.393678,-0.0021 0.790779,-0.0078 1.203179,-0.03424 0.09685,-0.0048 0.190035,-0.01526 0.286522,-0.0214 1.128996,-0.08699 2.312399,-0.257294 3.51685,-0.52047 0.429632,-0.09388 1.096881,-0.291907 1.534812,-0.454829 0.08544,-0.03189 0.146251,-0.05115 0.185023,-0.05847 0.0057,-0.0014 0.02054,-0.007 0.02538,-0.0079 z"
         style="fill:#ffffff;fill-rule:evenodd;stroke-width:0.686137"
         id="path28" /><path
         d="m 93.989981,81.286381 c 0.03615,0.03774 0.06247,0.190546 0.126869,0.507985 0.200292,0.9872 0.269923,2.38777 0.158596,3.187028 -0.118372,0.848945 -0.142433,0.939908 -0.282997,1.0652 -1.383998,1.233227 -4.336207,2.233453 -7.179964,2.432898 -0.239807,0.01678 -0.661393,0.0468 -0.936747,0.06669 -2.616943,0.188677 -6.502866,-0.439745 -8.536442,-1.380189 -0.07452,-0.03452 -0.21721,-0.09988 -0.317535,-0.145546 -1.041509,-0.474329 -2.111676,-1.283997 -2.505038,-1.89531 -0.218696,-0.339721 -0.250602,-1.487672 -0.07648,-2.746466 0.07957,-0.574421 0.05024,-0.560865 0.410576,-0.191922 1.020938,1.0451 2.700134,1.896764 4.698884,2.382602 0.635876,0.154701 0.69308,0.167441 0.887055,0.199769 5.572394,0.928389 11.32164,-0.491542 13.367481,-3.301182 0.103484,-0.14219 0.14958,-0.219315 0.185739,-0.181576 z m -0.130409,5.60638 c 0.01534,0.01222 -0.0077,0.07695 -0.05217,0.206902 -0.506319,1.480346 -1.50692,3.129019 -2.102917,3.465631 -0.3192,0.180276 -1.303205,0.572823 -1.636661,0.652817 -0.06207,0.01498 -0.248111,0.06475 -0.413395,0.110948 -0.282724,0.07869 -0.609513,0.154064 -0.946614,0.222951 -0.160124,0.03286 -0.323105,0.0593 -0.485994,0.0874 -0.124584,0.02174 -0.250077,0.04874 -0.371809,0.06703 -0.06782,0.01022 -0.137044,0.01519 -0.205111,0.02464 -0.159269,0.02175 -0.319026,0.04025 -0.480003,0.05778 -0.237608,0.02644 -0.475184,0.04894 -0.714366,0.06634 -0.106723,0.0075 -0.21292,0.01457 -0.320002,0.02036 -0.312659,0.0176 -0.624648,0.02761 -0.937099,0.03065 -0.04262,3.45e-4 -0.08496,0.0014 -0.127577,0.0014 -1.933717,0.0072 -3.833215,-0.250785 -5.421004,-0.705254 -0.158483,-0.0448 -0.305342,-0.09595 -0.457448,-0.144476 -0.126773,-0.04094 -0.257325,-0.07964 -0.37921,-0.123076 -0.211111,-0.07442 -0.408036,-0.154817 -0.603351,-0.236509 -0.05424,-0.02285 -0.110958,-0.04439 -0.163878,-0.06779 -0.204811,-0.08989 -0.395149,-0.184473 -0.579034,-0.282173 -0.03731,-0.01988 -0.07532,-0.03942 -0.11172,-0.05957 -0.180033,-0.0996 -0.346619,-0.202753 -0.50291,-0.309641 -0.03461,-0.02361 -0.06776,-0.04743 -0.101146,-0.07134 -0.143716,-0.103368 -0.277459,-0.208745 -0.397183,-0.318201 -0.04227,-0.03831 -0.07821,-0.0777 -0.117358,-0.116657 -0.09778,-0.09831 -0.192408,-0.197016 -0.269605,-0.299652 -0.05239,-0.06862 -0.08926,-0.139533 -0.131807,-0.209759 -0.05049,-0.0848 -0.110093,-0.16776 -0.145904,-0.255058 -0.0044,-0.01049 -0.0071,-0.02119 -0.01128,-0.03175 -0.05535,-0.142592 -0.09575,-0.287634 -0.109605,-0.436286 -0.01335,-0.143372 -0.03339,-0.291631 -0.04476,-0.32926 -0.02761,-0.09059 -0.03014,-0.09105 0.308725,0.07991 2.5177,1.270663 7.165331,1.922749 10.458569,1.467231 0.115843,-0.01588 0.291949,-0.03741 0.391192,-0.04777 2.569126,-0.266662 5.399954,-1.240938 7.004806,-2.410788 0.108442,-0.07899 0.162258,-0.119252 0.177616,-0.10702 z"
         style="fill:#ffffff;fill-rule:evenodd;stroke-width:0.686137"
         id="path27" /><path
         d="m 91.629431,76.92036 -0.03594,0.263624 c -0.185674,1.357605 -1.556509,2.511567 -3.83368,3.226625 -4.831682,1.51742 -10.378113,0.202802 -11.187032,-2.65122 -0.02724,-0.09625 -0.05894,-0.174284 -0.07013,-0.173371 -0.08932,0.0075 -0.769612,1.075075 -1.066438,1.673422 l -0.263966,0.531885 0.04511,0.168377 c 0.03231,0.120583 0.07865,0.241626 0.134978,0.362437 0.01129,0.02449 0.02621,0.04872 0.03842,0.07313 0.05043,0.09975 0.106417,0.199145 0.172336,0.298227 0.01399,0.02118 0.02973,0.04205 0.0444,0.06314 0.07172,0.102553 0.150735,0.204696 0.238239,0.305718 0.01569,0.01811 0.0314,0.0362 0.04758,0.05422 0.06104,0.06809 0.131199,0.134835 0.19912,0.20191 0.175408,0.172462 0.363642,0.342429 0.581501,0.504773 0.01099,0.0083 0.02379,0.01602 0.03489,0.02426 0.240038,0.176574 0.504441,0.346259 0.789433,0.507627 0.01757,0.01 0.03407,0.02041 0.0518,0.03033 0.273274,0.152341 0.569621,0.294901 0.878243,0.430574 0.123313,0.05376 0.251092,0.101385 0.377095,0.151611 0.22193,0.0887 0.447038,0.1752 0.683,0.254348 0.133048,0.04475 0.269335,0.08487 0.404937,0.125926 0.249582,0.07534 0.50408,0.146309 0.765819,0.210114 0.134181,0.03274 0.269343,0.06377 0.405642,0.09311 0.28373,0.06105 0.573576,0.113785 0.868023,0.160171 0.117574,0.01856 0.234232,0.03878 0.35313,0.05494 0.869333,0.116841 1.827816,0.171457 2.770062,0.162312 0.220241,-0.0036 0.444124,-0.01657 0.667141,-0.02747 0.184029,-0.0078 0.367765,-0.0148 0.546963,-0.02747 0.279754,-0.02103 0.562822,-0.05317 0.846173,-0.08561 0.219515,-0.02713 0.442221,-0.05234 0.644586,-0.08776 0.106849,-0.01682 0.213162,-0.03626 0.31965,-0.05601 0.639175,-0.128538 1.251388,-0.289393 1.819923,-0.481585 0.02373,-0.0082 0.04721,-0.01661 0.07084,-0.02497 0.235301,-0.08104 0.459263,-0.169325 0.679123,-0.259699 0.194117,-0.0821 0.384953,-0.166173 0.567757,-0.255776 0.05406,-0.02591 0.109321,-0.05131 0.162115,-0.07777 1.107307,-0.56641 1.970072,-1.25958 2.344686,-1.960946 L 93.7958,80.55081 93.640383,80.155552 c -0.09799,-0.248693 -0.205168,-0.485765 -0.316829,-0.719167 -0.06786,-0.140606 -0.142562,-0.277321 -0.216039,-0.414878 -0.05736,-0.107108 -0.113476,-0.215475 -0.174452,-0.319987 -0.05476,-0.09501 -0.111961,-0.184581 -0.168457,-0.27611 -0.111245,-0.177182 -0.224959,-0.35294 -0.348194,-0.524393 -0.02169,-0.03032 -0.0431,-0.06072 -0.06486,-0.09025 -0.163458,-0.222336 -0.335645,-0.441333 -0.521589,-0.657453 z"
         style="fill:#ffffff;fill-rule:evenodd;stroke-width:0.686137"
         id="path26" /><path
         d="m 87.465881,74.24845 c -0.09744,-0.03715 -0.141076,-0.04538 -0.154715,-0.02961 -0.0025,0.0018 -0.0076,0.0018 -0.0088,0.0046 -0.0038,0.02472 0.03097,0.08023 0.110661,0.18657 0.58878,0.78629 0.37386,1.734576 -0.555774,2.451094 -0.42079,0.324197 -0.896179,0.54446 -1.627147,0.753772 -2.595471,0.743185 -5.043278,-0.483383 -4.8973,-2.453948 0.02526,-0.343009 0.05043,-0.334949 -0.386964,-0.122716 -1.344108,0.652228 -2.055241,1.553984 -1.811464,2.296987 0.370265,1.12802 2.593629,2.231488 5.18946,2.575593 0.190185,0.0252 0.456907,0.06075 0.592779,0.07884 0.298873,0.03974 1.507408,0.03956 2.099044,0.01035 0.766495,-0.06029 1.534204,-0.177958 2.089882,-0.336753 0.206785,-0.05917 0.416637,-0.118301 0.466258,-0.131634 1.916469,-0.516157 3.259781,-2.389118 2.348913,-3.275497 -0.291423,-0.283466 -0.863393,-0.711849 -1.4298,-1.069835 -0.346988,-0.219357 -1.144674,-0.603322 -1.656045,-0.797292 -0.140564,-0.05351 -0.306557,-0.116807 -0.368989,-0.140551 z"
         style="fill:#ffffff;fill-rule:evenodd;stroke-width:0.686137"
         id="path8" /><path
         d="m 84.150969,73.962709 -0.315772,0.0874 c -1.127399,0.313054 -1.894638,0.850688 -1.894638,1.327393 0,0.710127 1.825002,1.522151 3.217289,1.431559 2.361258,-0.153422 2.964869,-2.042673 0.878244,-2.748964 -0.222124,-0.07507 -0.263488,-0.07826 -1.058333,-0.08776 z"
         style="fill:#ffffff;fill-rule:evenodd;stroke-width:0.686137"
         id="path7" /></g><text
       xml:space="preserve"
       style="font-size:8.16615px;fill:#ffffff;stroke:#ffffff;stroke-width:0.681;stroke-dasharray:none;stroke-opacity:1"
       x="76.627914"
       y="87.468643"
       id="text1"
       transform="scale(0.93690006,1.0673497)"><tspan
         sodipodi:role="line"
         id="tspan1"
         x="76.627914"
         y="87.468643"
         style="fill:#ffffff;stroke:#ffffff;stroke-width:0.681;stroke-dasharray:none;stroke-opacity:1">HOBBY HUB</tspan></text></g></svg>
